<svg width="32" height="32" viewBox="0 0 32 32" fill="none" xmlns="http://www.w3.org/2000/svg">
<path d="M25.7778 12.0193C25.7778 9.53887 24.7476 7.15998 22.9139 5.40602C21.0802 3.65205 18.5932 2.66669 16 2.66669C13.4068 2.66669 10.9198 3.65205 9.08607 5.40602C7.25238 7.15998 6.22222 9.53887 6.22222 12.0193C6.22222 20.3555 2.59053 24.1426 0.876221 25.4659C0.667482 25.627 0.793366 26.0483 1.05706 26.0483H10.0962C10.2132 26.0483 10.3151 26.1287 10.3482 26.2409C10.6064 27.1149 11.9075 30.6667 16 30.6667C20.0925 30.6667 21.3936 27.1149 21.6518 26.2409C21.6849 26.1287 21.7868 26.0483 21.9038 26.0483H30.9429C31.2066 26.0483 31.3325 25.627 31.1238 25.4659C29.4095 24.1426 25.7778 20.3555 25.7778 12.0193Z" fill="#D9DBE9"/>
</svg>
