<svg width="32" height="32" viewBox="0 0 32 32" fill="none" xmlns="http://www.w3.org/2000/svg">
<path d="M26.9999 22.14V9.85999C27.685 9.68638 28.3119 9.33435 28.8167 8.83972C29.3215 8.34509 29.6863 7.72553 29.8739 7.04411C30.0614 6.36269 30.0651 5.64373 29.8845 4.96043C29.7039 4.27713 29.3455 3.65388 28.8457 3.15412C28.346 2.65436 27.7227 2.29594 27.0394 2.11534C26.3561 1.93474 25.6372 1.93841 24.9557 2.12598C24.2743 2.31355 23.6548 2.67832 23.1601 3.18316C22.6655 3.688 22.3135 4.31488 22.1399 4.99999H9.85987C9.68626 4.31488 9.33422 3.688 8.8396 3.18316C8.34497 2.67832 7.72541 2.31355 7.04399 2.12598C6.36257 1.93841 5.64361 1.93474 4.96031 2.11534C4.27701 2.29594 3.65375 2.65436 3.15399 3.15412C2.65424 3.65388 2.29581 4.27713 2.11522 4.96043C1.93462 5.64373 1.93829 6.36269 2.12586 7.04411C2.31343 7.72553 2.6782 8.34509 3.18304 8.83972C3.68788 9.33435 4.31476 9.68638 4.99987 9.85999V22.14C4.31476 22.3136 3.68788 22.6656 3.18304 23.1603C2.6782 23.6549 2.31343 24.2744 2.12586 24.9559C1.93829 25.6373 1.93462 26.3562 2.11522 27.0395C2.29581 27.7229 2.65424 28.3461 3.15399 28.8459C3.65375 29.3456 4.27701 29.704 4.96031 29.8846C5.64361 30.0652 6.36257 30.0616 7.04399 29.874C7.72541 29.6864 8.34497 29.3217 8.8396 28.8168C9.33422 28.312 9.68626 27.6851 9.85987 27H22.1399C22.3135 27.6851 22.6655 28.312 23.1601 28.8168C23.6548 29.3217 24.2743 29.6864 24.9557 29.874C25.6372 30.0616 26.3561 30.0652 27.0394 29.8846C27.7227 29.704 28.346 29.3456 28.8457 28.8459C29.3455 28.3461 29.7039 27.7229 29.8845 27.0395C30.0651 26.3562 30.0614 25.6373 29.8739 24.9559C29.6863 24.2744 29.3215 23.6549 28.8167 23.1603C28.3119 22.6656 27.685 22.3136 26.9999 22.14ZM25.9999 3.99999C26.3954 3.99999 26.7821 4.11729 27.111 4.33705C27.4399 4.55681 27.6963 4.86917 27.8476 5.23462C27.999 5.60008 28.0386 6.00221 27.9614 6.39017C27.8843 6.77813 27.6938 7.1345 27.4141 7.4142C27.1344 7.69391 26.778 7.88439 26.39 7.96156C26.0021 8.03873 25.6 7.99912 25.2345 7.84775C24.869 7.69637 24.5567 7.44003 24.3369 7.11113C24.1172 6.78223 23.9999 6.39555 23.9999 5.99999C23.9999 5.46956 24.2106 4.96085 24.5857 4.58578C24.9607 4.2107 25.4694 3.99999 25.9999 3.99999ZM3.99987 5.99999C3.99987 5.60443 4.11717 5.21775 4.33693 4.88885C4.55669 4.55995 4.86905 4.30361 5.2345 4.15223C5.59995 4.00086 6.00209 3.96125 6.39005 4.03842C6.77801 4.11559 7.13438 4.30607 7.41408 4.58578C7.69379 4.86548 7.88427 5.22185 7.96144 5.60981C8.03861 5.99777 7.999 6.3999 7.84763 6.76536C7.69625 7.13081 7.43991 7.44317 7.11101 7.66293C6.78211 7.88269 6.39543 7.99999 5.99987 7.99999C5.46943 7.99999 4.96073 7.78928 4.58565 7.4142C4.21058 7.03913 3.99987 6.53042 3.99987 5.99999ZM5.99987 28C5.60431 28 5.21763 27.8827 4.88873 27.6629C4.55983 27.4432 4.30348 27.1308 4.15211 26.7654C4.00073 26.3999 3.96113 25.9978 4.0383 25.6098C4.11547 25.2218 4.30595 24.8655 4.58565 24.5858C4.86536 24.3061 5.22173 24.1156 5.60969 24.0384C5.99765 23.9612 6.39978 24.0009 6.76523 24.1522C7.13069 24.3036 7.44304 24.56 7.66281 24.8888C7.88257 25.2177 7.99987 25.6044 7.99987 26C7.99987 26.5304 7.78915 27.0391 7.41408 27.4142C7.03901 27.7893 6.5303 28 5.99987 28ZM22.1399 25H9.85987C9.68031 24.3121 9.32067 23.6846 8.81799 23.1819C8.3153 22.6792 7.68773 22.3195 6.99987 22.14V9.85999C7.68773 9.68043 8.3153 9.3208 8.81799 8.81811C9.32067 8.31542 9.68031 7.68785 9.85987 6.99999H22.1399C22.3194 7.68785 22.6791 8.31542 23.1817 8.81811C23.6844 9.3208 24.312 9.68043 24.9999 9.85999V22.14C24.312 22.3195 23.6844 22.6792 23.1817 23.1819C22.6791 23.6846 22.3194 24.3121 22.1399 25ZM25.9999 28C25.6043 28 25.2176 27.8827 24.8887 27.6629C24.5598 27.4432 24.3035 27.1308 24.1521 26.7654C24.0007 26.3999 23.9611 25.9978 24.0383 25.6098C24.1155 25.2218 24.306 24.8655 24.5857 24.5858C24.8654 24.3061 25.2217 24.1156 25.6097 24.0384C25.9977 23.9612 26.3998 24.0009 26.7652 24.1522C27.1307 24.3036 27.443 24.56 27.6628 24.8888C27.8826 25.2177 27.9999 25.6044 27.9999 26C27.9999 26.5304 27.7892 27.0391 27.4141 27.4142C27.039 27.7893 26.5303 28 25.9999 28Z" fill="#262338"/>
<path d="M21 11H11V13H15V22H17V13H21V11Z" fill="#262338"/>
</svg>
