<svg width="48" height="48" viewBox="0 0 48 48" fill="none" xmlns="http://www.w3.org/2000/svg">
<path fill-rule="evenodd" clip-rule="evenodd" d="M6 24C6 26.2091 7.79086 28 10 28C12.2091 28 14 26.2091 14 24C14 21.7909 12.2091 20 10 20C7.79086 20 6 21.7909 6 24ZM24 28C21.7909 28 20 26.2091 20 24C20 21.7909 21.7909 20 24 20C26.2091 20 28 21.7909 28 24C28 26.2091 26.2091 28 24 28ZM38 28C35.7909 28 34 26.2091 34 24C34 21.7909 35.7909 20 38 20C40.2091 20 42 21.7909 42 24C42 26.2091 40.2091 28 38 28Z" fill="#222B45"/>
<mask id="mask0_6146_44652" style="mask-type:alpha" maskUnits="userSpaceOnUse" x="6" y="20" width="36" height="8">
<path fill-rule="evenodd" clip-rule="evenodd" d="M6 24C6 26.2091 7.79086 28 10 28C12.2091 28 14 26.2091 14 24C14 21.7909 12.2091 20 10 20C7.79086 20 6 21.7909 6 24ZM24 28C21.7909 28 20 26.2091 20 24C20 21.7909 21.7909 20 24 20C26.2091 20 28 21.7909 28 24C28 26.2091 26.2091 28 24 28ZM38 28C35.7909 28 34 26.2091 34 24C34 21.7909 35.7909 20 38 20C40.2091 20 42 21.7909 42 24C42 26.2091 40.2091 28 38 28Z" fill="white"/>
</mask>
<g mask="url(#mask0_6146_44652)">
</g>
</svg>
