<svg width="32" height="32" viewBox="0 0 32 32" fill="none" xmlns="http://www.w3.org/2000/svg">
<path d="M18.5 2.5H20.5V4.5H18.5V2.5Z" fill="black"/>
<path d="M23 2.5H25V4.5H23V2.5Z" fill="black"/>
<path d="M18.5 27.5H20.5V29.5H18.5V27.5Z" fill="black"/>
<path d="M23 27.5H25V29.5H23V27.5Z" fill="black"/>
<path d="M27.5 2.5H29.5V4.5H27.5V2.5Z" fill="black"/>
<path d="M27.5 6.59085H29.5V8.68173H27.5V6.59085Z" fill="black"/>
<path d="M27.5 10.7727H29.5V12.8635H27.5V10.7727Z" fill="black"/>
<path d="M27.5 23.3182H29.5V25.4091H27.5V23.3182Z" fill="black"/>
<path d="M27.5 14.9546H29.5V17.0454H27.5V14.9546Z" fill="black"/>
<path d="M27.5 19.1364H29.5V21.2273H27.5V19.1364Z" fill="black"/>
<path d="M27.5 27.5H29.5V29.5H27.5V27.5Z" fill="black"/>
<path d="M2.5 28.5C2.5 28.7652 2.60536 29.0196 2.79289 29.2071C2.98043 29.3946 3.23478 29.5 3.5 29.5H14V31H16V1H14V2.5H3.5C3.23478 2.5 2.98043 2.60536 2.79289 2.79289C2.60536 2.98043 2.5 3.23478 2.5 3.5V28.5ZM4.5 4.5H14V27.5H4.5V4.5Z" fill="black"/>
</svg>
