<svg width="32" height="32" viewBox="0 0 32 32" fill="none" xmlns="http://www.w3.org/2000/svg">
<g clip-path="url(#clip0_10164_45085)">
<path fill-rule="evenodd" clip-rule="evenodd" d="M27.7 8.88L21.14 2.28L20.44 2H5L4 3V14H6V4H18V11L19 12H26V14H28V9.6L27.7 8.88ZM20 10V4L26 10H20ZM5 16L4 17V29L5 30H27L28 29V17L27 16H5ZM26 26V28H6V18H26V26ZM10 24C10 24 9.59804 23.9238 9.36 24C8.61611 24.238 10.0059 25.5608 9.36 26C8.92081 26.2987 8.53111 26 8 26C8 26 12.38 20.72 12.38 22C12.3839 22.272 12.3287 22.5417 12.2182 22.7903C12.1077 23.0389 11.74 23.44 11.74 23.44C11.74 23.44 10.6279 24.0247 10 24ZM9.88 21.1H9.36V22.96H9.88C10.6 22.96 10.96 22.64 10.96 22.02C10.96 21.4 10.6 21.1 9.88 21.1ZM18 25.16C18.2954 24.8691 18.5263 24.5193 18.6779 24.1335C18.8295 23.7476 18.8984 23.3342 18.88 22.92C18.88 20.92 17.82 20 15.68 20H13.56V26H15.68C16.1031 26.0205 16.526 25.9568 16.9242 25.8126C17.3225 25.6684 17.6881 25.4466 18 25.16ZM14.9 24.9V21.1H15.56C15.8151 21.0838 16.0708 21.1198 16.3115 21.2057C16.5522 21.2917 16.7729 21.4259 16.96 21.6C17.1295 21.778 17.2612 21.9885 17.3471 22.2188C17.4331 22.4491 17.4715 22.6945 17.46 22.94C17.49 23.4672 17.3102 23.9848 16.96 24.38C16.7769 24.5552 16.5603 24.6916 16.3231 24.781C16.086 24.8703 15.8332 24.9108 15.58 24.9H14.9ZM23.8 23.68H21.86V26H20.5V20H23.98V21.1H21.86V22.58H23.8V23.68Z" fill="#262338"/>
<rect x="6" y="18" width="20" height="10" fill="#FCFCFC"/>
<path d="M7.099 20.285L7.405 21.347L8.593 21.014V26H9.835V19.7H8.755L7.099 20.285ZM13.5655 26.126C14.3575 26.126 14.9785 25.829 15.4195 25.235C15.8605 24.632 16.0855 23.84 16.0855 22.85C16.0855 21.86 15.8605 21.068 15.4195 20.474C14.9785 19.871 14.3575 19.574 13.5655 19.574C12.7825 19.574 12.1615 19.871 11.7115 20.474C11.2705 21.068 11.0455 21.86 11.0455 22.85C11.0455 23.84 11.2705 24.632 11.7115 25.235C12.1615 25.829 12.7825 26.126 13.5655 26.126ZM14.8525 22.85C14.8525 24.182 14.4025 24.911 13.5655 24.911C12.7285 24.911 12.2875 24.191 12.2875 22.85C12.2875 21.509 12.7285 20.78 13.5655 20.78C14.4025 20.78 14.8525 21.509 14.8525 22.85ZM22.1574 21.374C21.5634 21.374 21.1134 21.59 20.8164 22.022C20.5554 21.59 20.1414 21.374 19.5924 21.374C19.0254 21.374 18.6114 21.572 18.3414 21.977V21.5H17.1804V26H18.3414V23.471C18.3414 22.814 18.6744 22.454 19.1874 22.454C19.6644 22.454 19.9434 22.769 19.9434 23.309V26H21.1044V23.471C21.1044 22.814 21.4104 22.454 21.9414 22.454C22.4184 22.454 22.6974 22.769 22.6974 23.309V26H23.8584V23.228C23.8584 22.103 23.1924 21.374 22.1574 21.374Z" fill="#262338"/>
</g>
<defs>
<clipPath id="clip0_10164_45085">
<rect width="32" height="32" fill="white"/>
</clipPath>
</defs>
</svg>
