<svg width="73" height="60" viewBox="0 0 73 60" fill="none" xmlns="http://www.w3.org/2000/svg">
<path d="M58.7373 23.5833C60.0245 25.8171 62.1423 27.4517 64.6293 28.131C67.1164 28.8103 69.7711 28.4792 72.0151 27.2099C72.279 29.5678 71.8009 31.9493 70.6474 34.0226C69.4939 36.096 67.7225 37.758 65.5798 38.777L65.5766 59.4252H46.0265V52.9085C46.0289 50.364 45.0391 47.9189 43.2674 46.0926C41.4957 44.2663 39.0816 43.2029 36.5383 43.1282C33.9949 43.0536 31.5227 43.9736 29.6468 45.6927C27.771 47.4119 26.6395 49.7948 26.4927 52.335L26.4764 52.9085V59.4252H6.92628V38.7803C4.77951 37.7627 3.00414 36.1 1.8481 34.0245C0.692057 31.949 0.213064 29.5643 0.478012 27.2034C2.72183 28.4753 5.37751 28.8085 7.86601 28.1304C10.3545 27.4523 12.474 25.8178 13.7623 23.5833H58.7373ZM52.6605 0.774902C52.8935 2.39137 53.4711 3.93892 54.354 5.31286C55.2369 6.68679 56.4047 7.85506 57.7782 8.73862C59.1518 9.62218 60.699 10.2004 62.3154 10.4342C63.9318 10.668 65.5795 10.5519 67.1471 10.0938C66.8681 12.7936 65.6354 15.3053 63.6704 17.1777C61.7055 19.0501 59.1372 20.1602 56.4271 20.3087L55.8015 20.325H16.7013C13.8795 20.3255 11.1577 19.2797 9.06215 17.39C6.96656 15.5002 5.646 12.9006 5.35576 10.0938C6.92337 10.5519 8.57109 10.668 10.1874 10.4342C11.8038 10.2004 13.3511 9.62218 14.7246 8.73862C16.0982 7.85506 17.2659 6.68679 18.1488 5.31286C19.0318 3.93892 19.6093 2.39137 19.8424 0.774902H52.6605Z" fill="#3D40C6"/>
</svg>
