<svg width="33" height="32" viewBox="0 0 33 32" fill="none" xmlns="http://www.w3.org/2000/svg">
<g clip-path="url(#clip0_12492_45241)">
<path d="M32.3335 16.0934C32.3314 13.0185 31.4536 10.0086 29.8041 7.41987C28.1545 4.83111 25.8022 2.77185 23.0255 1.48579C20.2488 0.199734 17.1639 -0.259294 14.1359 0.16303C11.108 0.585353 8.26367 1.87135 5.93961 3.86884C3.61555 5.86633 1.90901 8.49169 1.02195 11.4343C0.134884 14.3768 0.104429 17.5134 0.934186 20.4728C1.76394 23.4323 3.41918 26.0906 5.70401 28.1334C7.98885 30.1762 10.8076 31.5178 13.8268 31.9995V20.7472H9.82682V16.0934H13.8268V12.5528C13.8268 8.52929 16.2268 6.28956 19.8802 6.28956C21.0776 6.30703 22.272 6.41462 23.4535 6.61144V10.6349H21.4402C21.0926 10.5807 20.7374 10.6067 20.4014 10.7109C20.0653 10.8151 19.7572 10.9948 19.5003 11.2364C19.2434 11.478 19.0445 11.7752 18.9186 12.1054C18.7927 12.4357 18.7431 12.7905 18.7735 13.1429V16.1605H23.2668L22.5602 20.8143H18.8268V32.0666C22.6044 31.4672 26.0437 29.5266 28.5214 26.5964C30.9992 23.6661 32.3515 19.9401 32.3335 16.0934Z" fill="white"/>
</g>
<defs>
<clipPath id="clip0_12492_45241">
<rect width="32" height="32" fill="white" transform="translate(0.333496)"/>
</clipPath>
</defs>
</svg>
