<svg width="79" height="79" viewBox="0 0 79 79" fill="none" xmlns="http://www.w3.org/2000/svg">
<path d="M62.0601 45.6167V55.3917H71.8352V61.9084H62.0601V71.6835H55.5434V61.9084H45.7684V55.3917H55.5434V45.6167H62.0601ZM66.1102 15.4998C73.1483 22.5573 73.6989 33.6064 67.7622 41.2733C65.0773 39.882 62.0275 39.1 58.8018 39.1C48.0036 39.1 39.2517 47.8519 39.2517 58.6501C39.2517 61.9377 40.063 65.0364 41.4967 67.7539L39.2484 70.0054L11.6241 42.3355C4.76855 34.6588 5.02596 22.8701 12.3931 15.4998C19.7733 8.12285 31.5782 7.87522 39.2549 14.7569C46.9088 7.88499 58.7366 8.11308 66.1102 15.4998Z" fill="#3D40C6"/>
</svg>
