<svg width="79" height="79" viewBox="0 0 79 79" fill="none" xmlns="http://www.w3.org/2000/svg">
<path d="M29.5414 42.3585V52.1335H49.0915V42.3585H71.9V65.1669C71.9 66.0311 71.5567 66.8599 70.9456 67.4709C70.3345 68.082 69.5058 68.4253 68.6416 68.4253H9.99132C9.12715 68.4253 8.29838 68.082 7.68732 67.4709C7.07626 66.8599 6.73297 66.0311 6.73297 65.1669V42.3585H29.5414ZM36.0581 35.8418H42.5748V45.6168H36.0581V35.8418ZM23.0247 16.2917V6.51665C23.0247 5.65248 23.368 4.82371 23.9791 4.21265C24.5901 3.60159 25.4189 3.2583 26.2831 3.2583H52.3499C53.214 3.2583 54.0428 3.60159 54.6539 4.21265C55.2649 4.82371 55.6082 5.65248 55.6082 6.51665V16.2917H68.6416C69.5058 16.2917 70.3345 16.635 70.9456 17.246C71.5567 17.8571 71.9 18.6859 71.9 19.55V35.8418H49.0915V29.3251H29.5414V35.8418H6.73297V19.55C6.73297 18.6859 7.07626 17.8571 7.68732 17.246C8.29838 16.635 9.12715 16.2917 9.99132 16.2917H23.0247ZM29.5414 9.775V16.2917H49.0915V9.775H29.5414Z" fill="#3D40C6"/>
</svg>
