<svg width="79" height="79" viewBox="0 0 79 79" fill="none" xmlns="http://www.w3.org/2000/svg">
<path d="M47.3991 14.33L36.047 33.9942L41.6904 37.2525L53.0425 17.5884C66.6298 26.6205 73.5897 40.6575 67.9006 50.5042C61.8401 61.0026 44.4763 61.436 29.0937 52.557C13.711 43.6682 5.40546 28.4159 11.466 17.9207C17.1518 8.07073 32.7854 7.08019 47.3991 14.33ZM52.3387 5.77686L57.9822 9.0352L53.0947 17.5004L47.4512 14.242L52.3387 5.77686ZM22.5183 65.1668H55.975V71.6835H16.9302C16.3486 71.695 15.7746 71.5499 15.2684 71.2632C14.7622 70.9766 14.3424 70.559 14.0531 70.0543C13.7687 69.5584 13.6191 68.9968 13.6191 68.4251C13.6191 67.8535 13.7687 67.2918 14.0531 66.796L21.3844 54.0982L27.0279 57.3565L22.5183 65.1668Z" fill="#3D40C6"/>
</svg>
