<svg width="79" height="79" viewBox="0 0 79 79" fill="none" xmlns="http://www.w3.org/2000/svg">
<path d="M16.6436 62.1404C13.6135 59.1181 11.2105 55.5268 9.57264 51.5728C7.93482 47.6189 7.09449 43.3803 7.09994 39.1006C7.09994 21.1047 21.6876 6.51709 39.6834 6.51709C57.6793 6.51709 72.2669 21.1047 72.2669 39.1006C72.2669 57.0964 57.6793 71.6841 39.6834 71.6841H7.09994L16.6436 62.1404ZM26.65 42.3589C26.65 45.8156 28.0232 49.1307 30.4674 51.5749C32.9117 54.0192 36.2268 55.3923 39.6834 55.3923C43.1401 55.3923 46.4552 54.0192 48.8994 51.5749C51.3437 49.1307 52.7168 45.8156 52.7168 42.3589H26.65Z" fill="#3D40C6"/>
</svg>
