<svg width="24" height="26" viewBox="0 0 24 26" fill="none" xmlns="http://www.w3.org/2000/svg">
<path d="M2.00012 11.2938C2.00012 10.0802 2.57707 8.93886 3.55432 8.21925L12.0001 2.00006L20.4459 8.21925C21.4232 8.93886 22.0001 10.0802 22.0001 11.2938V20.8182C22.0001 22.5755 20.5756 24.0001 18.8183 24.0001H16.2728C15.5699 24.0001 15.0001 23.4302 15.0001 22.7273V17.1364C15.0001 16.785 14.7152 16.5001 14.3638 16.5001H9.63649C9.28503 16.5001 9.00012 16.785 9.00012 17.1364V22.7273C9.00012 23.4302 8.4303 24.0001 7.72739 24.0001H5.18194C3.42467 24.0001 2.00012 22.5755 2.00012 20.8182V11.2938Z" stroke="#3D40C6" stroke-width="2.54545" stroke-linecap="round" stroke-linejoin="round"/>
</svg>
