<svg width="32" height="32" viewBox="0 0 32 32" fill="none" xmlns="http://www.w3.org/2000/svg">
<g clip-path="url(#clip0_12492_45243)">
<path d="M16.0005 0C11.6538 0 11.1072 0 9.40049 0.0933333C8.0743 0.121615 6.76245 0.374067 5.52049 0.84C4.45467 1.24625 3.48676 1.8732 2.68023 2.67974C1.87369 3.48627 1.24674 4.45418 0.840488 5.52C0.374555 6.76197 0.122104 8.07381 0.0938216 9.4C0.000488281 11.1067 0.000488281 11.6533 0.000488281 16C0.000488281 20.3467 0.000488281 20.8933 0.0938216 22.6667C0.120558 23.993 0.373059 25.3051 0.840488 26.5467C1.24704 27.5935 1.86943 28.5429 2.66716 29.3333C3.4694 30.1451 4.43841 30.7729 5.50716 31.1733C6.74912 31.6393 8.06097 31.8917 9.38716 31.92C11.1072 32 11.6538 32 16.0005 32C20.3472 32 20.8938 32 22.6005 31.9067C23.9268 31.8799 25.2389 31.6274 26.4805 31.16C27.5511 30.7618 28.524 30.1389 29.3338 29.3333C30.1456 28.5311 30.7734 27.5621 31.1738 26.4933C31.6293 25.2674 31.8772 23.9741 31.9072 22.6667C32.0005 20.8933 32.0005 20.3467 32.0005 16C32.0005 11.6533 32.0005 11.1067 31.9072 9.4C31.8804 8.07365 31.6279 6.76154 31.1605 5.52C30.7542 4.45418 30.1273 3.48627 29.3208 2.67974C28.5142 1.8732 27.5463 1.24625 26.4805 0.84C25.26 0.379935 23.971 0.127554 22.6672 0.0933333C20.8938 0 20.3472 0 16.0005 0ZM16.0005 2.88C20.2672 2.88 20.7872 2.88 22.4672 2.97333C23.4831 2.98721 24.4891 3.17667 25.4405 3.53333C26.1368 3.78229 26.7665 4.18835 27.2805 4.72C27.8121 5.23403 28.2182 5.86365 28.4672 6.56C28.8289 7.51 29.0185 8.51683 29.0272 9.53333C29.0938 11.2267 29.1205 11.7333 29.1205 16C29.1205 20.2667 29.1205 20.7867 29.0138 22.4667C28.9999 23.4826 28.8105 24.4886 28.4538 25.44C28.1952 26.1347 27.7853 26.7632 27.2538 27.28C26.7398 27.8117 26.1102 28.2177 25.4138 28.4667C24.4642 28.8298 23.4571 29.0195 22.4405 29.0267C20.7472 29.0933 20.2405 29.12 15.9605 29.12C11.6805 29.12 11.1738 29.12 9.48049 29.0133C8.46451 28.9995 7.45858 28.81 6.50716 28.4533C5.80931 28.2009 5.17948 27.7902 4.66716 27.2533C4.13142 26.7401 3.72084 26.1105 3.46715 25.4133C3.11049 24.4619 2.92103 23.456 2.90716 22.44C2.84049 20.76 2.82715 20.24 2.82715 15.9867C2.82715 11.7333 2.82716 11.2 2.90716 9.49333C2.92103 8.47735 3.11049 7.47142 3.46715 6.52C3.71778 5.82127 4.12878 5.19106 4.66716 4.68C5.17822 4.14163 5.80843 3.73062 6.50716 3.48C7.45569 3.12958 8.45616 2.9403 9.46716 2.92C11.1605 2.92 11.6672 2.84 15.9338 2.84L16.0005 2.88ZM16.0005 7.78667C14.376 7.78667 12.7881 8.26837 11.4374 9.17086C10.0867 10.0734 9.03401 11.3561 8.41236 12.8569C7.79071 14.3577 7.62806 16.0091 7.94497 17.6023C8.26189 19.1956 9.04413 20.659 10.1928 21.8077C11.3414 22.9564 12.8049 23.7386 14.3981 24.0555C15.9914 24.3724 17.6428 24.2098 19.1436 23.5881C20.6444 22.9665 21.9271 21.9138 22.8296 20.5631C23.7321 19.2124 24.2138 17.6244 24.2138 16C24.2138 13.8217 23.3485 11.7326 21.8082 10.1923C20.2679 8.652 18.1788 7.78667 16.0005 7.78667ZM16.0005 21.3333C14.9457 21.3333 13.9145 21.0205 13.0374 20.4345C12.1604 19.8485 11.4768 19.0155 11.0731 18.041C10.6695 17.0664 10.5638 15.9941 10.7696 14.9595C10.9754 13.925 11.4834 12.9746 12.2293 12.2288C12.9751 11.4829 13.9254 10.9749 14.96 10.7691C15.9946 10.5634 17.0669 10.669 18.0415 11.0726C19.016 11.4763 19.849 12.1599 20.435 13.037C21.021 13.914 21.3338 14.9452 21.3338 16C21.3338 17.4145 20.7719 18.771 19.7717 19.7712C18.7715 20.7714 17.415 21.3333 16.0005 21.3333ZM26.4672 7.46667C26.4672 7.84641 26.3546 8.21762 26.1436 8.53336C25.9326 8.8491 25.6327 9.0952 25.2819 9.24052C24.9311 9.38584 24.545 9.42386 24.1726 9.34978C23.8001 9.27569 23.458 9.09283 23.1895 8.82431C22.921 8.55579 22.7381 8.21368 22.664 7.84124C22.59 7.4688 22.628 7.08275 22.7733 6.73191C22.9186 6.38108 23.1647 6.08122 23.4805 5.87024C23.7962 5.65927 24.1674 5.54667 24.5472 5.54667C25.0553 5.55016 25.5416 5.75357 25.9009 6.11288C26.2603 6.4722 26.4637 6.95853 26.4672 7.46667Z" fill="white"/>
</g>
<defs>
<clipPath id="clip0_12492_45243">
<rect width="32" height="32" fill="white" transform="translate(0.000244141)"/>
</clipPath>
</defs>
</svg>
