<svg width="25" height="24" viewBox="0 0 25 24" fill="none" xmlns="http://www.w3.org/2000/svg">
<path d="M1.88215 0.129099L24.0332 10.7242C24.2568 10.8312 24.4456 10.9993 24.5777 11.209C24.7099 11.4188 24.78 11.6616 24.78 11.9095C24.78 12.1574 24.7099 12.4003 24.5777 12.61C24.4456 12.8198 24.2568 12.9879 24.0332 13.0949L1.88215 23.69C1.65497 23.7989 1.40129 23.8402 1.15131 23.8089C0.901328 23.7777 0.665587 23.6753 0.472165 23.5139C0.278742 23.3525 0.135789 23.1389 0.0603328 22.8985C-0.0151234 22.6582 -0.0199028 22.4012 0.0465638 22.1582L2.26272 14.0337C2.28985 13.9341 2.34569 13.8447 2.42327 13.7767C2.50086 13.7086 2.59676 13.6649 2.69901 13.651L13.4329 12.1929C13.4776 12.1866 13.52 12.1689 13.5559 12.1414C13.5918 12.114 13.6201 12.0777 13.6379 12.0362L13.6568 11.97C13.6651 11.9113 13.6533 11.8515 13.6233 11.8004C13.5934 11.7492 13.547 11.7097 13.4917 11.6882L13.4339 11.6725L2.71058 10.2154C2.60851 10.2012 2.51284 10.1574 2.43546 10.0894C2.35807 10.0214 2.30239 9.9321 2.27534 9.83267L0.0465638 1.66085C-0.0199028 1.41786 -0.0151234 1.16088 0.0603328 0.920523C0.135789 0.680167 0.278742 0.466565 0.472165 0.305158C0.665587 0.143751 0.901328 0.0413414 1.15131 0.0101273C1.40129 -0.0210869 1.65497 0.02021 1.88215 0.129099Z" fill="#00CC67"/>
</svg>
