<svg width="33" height="26" viewBox="0 0 33 26" fill="none" xmlns="http://www.w3.org/2000/svg">
<g clip-path="url(#clip0_12492_45249)">
<path d="M10.7309 26.0002C22.8071 26.0002 29.4154 15.9981 29.4154 7.32066C29.4154 7.03438 29.409 6.75168 29.3961 6.47256C30.6793 5.54415 31.7869 4.3947 32.667 3.07804C31.4692 3.60953 30.1983 3.95768 28.8968 4.11078C30.2672 3.29046 31.2933 2.00072 31.7843 0.481154C30.4967 1.24461 29.0885 1.78335 27.62 2.07428C26.6307 1.01992 25.3211 0.32123 23.8942 0.0864763C22.4673 -0.148277 21.0029 0.0940168 19.7277 0.775811C18.4526 1.45761 17.438 2.54083 16.8411 3.85762C16.2443 5.17441 16.0985 6.65124 16.4265 8.05925C13.8163 7.92858 11.2628 7.2505 8.93178 6.06904C6.60078 4.88758 4.54443 3.22917 2.89625 1.2015C2.05643 2.64643 1.79894 4.357 2.17619 5.98504C2.55343 7.61307 3.53706 9.03621 4.92686 9.96478C3.885 9.93244 2.86609 9.65081 1.95558 9.14352C1.95558 9.17143 1.95558 9.19827 1.95558 9.22726C1.9556 10.7419 2.4795 12.2099 3.43848 13.3825C4.39746 14.555 5.73251 15.36 7.21733 15.661C6.6537 15.8132 6.07231 15.8897 5.48847 15.8885C5.07433 15.8883 4.66116 15.8484 4.25464 15.7694C4.67304 17.0745 5.48921 18.2161 6.58887 19.0344C7.68854 19.8528 9.01665 20.3068 10.3873 20.333C8.06149 22.1579 5.1892 23.1475 2.23263 23.1424C1.70941 23.1429 1.18661 23.1125 0.666992 23.0512C3.6687 24.9801 7.16257 26.0039 10.7309 26.0002Z" fill="white"/>
</g>
<defs>
<clipPath id="clip0_12492_45249">
<rect width="32" height="26" fill="white" transform="translate(0.666748)"/>
</clipPath>
</defs>
</svg>
