<svg width="703" height="46" viewBox="0 0 703 46" fill="none" xmlns="http://www.w3.org/2000/svg">
<path d="M672.486 19V17.844H666.621L670.021 14.461C671.432 13.05 672.231 11.843 672.231 10.466C672.231 9.361 671.874 8.494 671.143 7.865C670.429 7.219 669.596 6.896 668.644 6.896C667.08 6.896 665.72 7.661 664.972 9.14L665.975 9.735C666.536 8.613 667.42 8.052 668.644 8.052C669.953 8.052 671.041 8.953 671.041 10.466C671.041 11.333 670.429 12.387 669.205 13.611L664.921 17.929V19H672.486ZM682.423 10.823C682.423 9.667 682.049 8.732 681.301 8.001C680.553 7.27 679.601 6.896 678.428 6.896C677.255 6.896 676.303 7.27 675.555 8.001C674.807 8.732 674.433 9.667 674.433 10.823C674.433 11.979 674.807 12.931 675.555 13.662C676.303 14.393 677.255 14.75 678.428 14.75C678.751 14.75 679.074 14.716 679.38 14.648L676.456 19H677.799L681.692 13.203C682.185 12.506 682.423 11.724 682.423 10.823ZM676.388 8.817C676.915 8.307 677.595 8.052 678.428 8.052C679.261 8.052 679.941 8.307 680.451 8.817C680.978 9.327 681.233 9.99 681.233 10.823C681.233 11.656 680.978 12.319 680.451 12.829C679.941 13.339 679.261 13.594 678.428 13.594C677.595 13.594 676.915 13.339 676.388 12.829C675.878 12.319 675.623 11.656 675.623 10.823C675.623 9.99 675.878 9.327 676.388 8.817ZM687.309 11.996C688.074 11.996 688.685 11.758 689.179 11.265C689.672 10.772 689.91 10.16 689.91 9.446C689.91 8.732 689.655 8.137 689.162 7.644C688.669 7.151 688.04 6.896 687.309 6.896C686.578 6.896 685.949 7.151 685.456 7.644C684.963 8.137 684.708 8.732 684.708 9.446C684.708 10.16 684.963 10.772 685.456 11.265C685.949 11.758 686.578 11.996 687.309 11.996ZM686.221 10.534C685.66 9.939 685.66 8.953 686.221 8.358C686.782 7.763 687.836 7.763 688.397 8.358C688.958 8.953 688.958 9.939 688.397 10.534C687.836 11.129 686.782 11.129 686.221 10.534ZM686.017 17.793L694.007 8.834L693.276 8.426L685.303 17.385L686.017 17.793ZM693.973 18.473C694.466 17.98 694.721 17.368 694.721 16.654C694.721 15.94 694.466 15.345 693.973 14.852C693.48 14.359 692.851 14.104 692.12 14.104C691.389 14.104 690.76 14.359 690.267 14.852C689.774 15.345 689.519 15.94 689.519 16.654C689.519 17.368 689.774 17.98 690.267 18.473C690.76 18.966 691.389 19.204 692.12 19.204C692.851 19.204 693.48 18.966 693.973 18.473ZM691.032 17.742C690.471 17.147 690.471 16.161 691.032 15.566C691.593 14.971 692.647 14.971 693.208 15.566C693.769 16.161 693.769 17.147 693.208 17.742C692.647 18.337 691.593 18.337 691.032 17.742Z" fill="#A0A3BD"/>
<rect x="1.03394" y="34" width="701.966" height="12" rx="5.91453" fill="#EFF0F7"/>
<rect x="0.555664" y="34.453" width="137.623" height="11.1111" rx="5.55556" fill="url(#paint0_linear_8549_44797)"/>
<defs>
<linearGradient id="paint0_linear_8549_44797" x1="0.555664" y1="37.8419" x2="64.7503" y2="108.47" gradientUnits="userSpaceOnUse">
<stop stop-color="#C566FF"/>
<stop offset="1" stop-color="#5C00B9"/>
</linearGradient>
</defs>
</svg>
