<svg width="79" height="79" viewBox="0 0 79 79" fill="none" xmlns="http://www.w3.org/2000/svg">
<path d="M45.7684 6.51709C51.7311 6.51425 57.5145 8.55573 62.1541 12.3011C66.7938 16.0464 70.0091 21.2692 71.2639 27.0984C72.5187 32.9275 71.7371 39.0107 69.0495 44.3333C66.3618 49.6559 61.9306 53.8962 56.4949 56.347C54.7574 60.1883 52.1141 63.5509 48.7917 66.1463C45.4693 68.7417 41.5669 70.4925 37.4193 71.2486C33.2717 72.0046 29.0025 71.7434 24.978 70.4872C20.9536 69.2311 17.2938 67.0175 14.3126 64.0364C11.3315 61.0552 9.11793 57.3955 7.86178 53.371C6.60562 49.3465 6.34438 45.0773 7.10044 40.9297C7.85651 36.7821 9.60732 32.8797 12.2027 29.5573C14.7981 26.2349 18.1607 23.5916 22.002 21.8541C24.0682 17.2823 27.4095 13.4036 31.625 10.6832C35.8405 7.96287 40.7513 6.51632 45.7684 6.51709V6.51709ZM35.9933 29.3255H29.4766V32.5839C27.3591 32.5787 25.3227 33.3984 23.7992 34.8691C22.2757 36.3398 21.3848 38.346 21.3153 40.4624C21.2458 42.5789 22.0032 44.6392 23.427 46.2066C24.8507 47.7741 26.8289 48.7256 28.9423 48.8593L29.4766 48.8756H35.9933L36.2866 48.9017C36.6622 48.9697 37.002 49.1675 37.2467 49.4605C37.4914 49.7535 37.6255 50.1231 37.6255 50.5048C37.6255 50.8865 37.4914 51.2562 37.2467 51.5492C37.002 51.8421 36.6622 52.0399 36.2866 52.1079L35.9933 52.134H22.9599V58.6507H29.4766V61.909H35.9933V58.6507C38.1109 58.6558 40.1472 57.8362 41.6707 56.3655C43.1942 54.8947 44.0852 52.8886 44.1546 50.7721C44.2241 48.6557 43.4667 46.5954 42.043 45.0279C40.6192 43.4604 38.641 42.509 36.5277 42.3752L35.9933 42.3589H29.4766L29.1834 42.3329C28.8078 42.2649 28.4679 42.0671 28.2232 41.7741C27.9785 41.4811 27.8445 41.1115 27.8445 40.7298C27.8445 40.348 27.9785 39.9784 28.2232 39.6854C28.4679 39.3924 28.8078 39.1947 29.1834 39.1267L29.4766 39.1006H42.51V32.5839H35.9933V29.3255ZM45.7684 13.0338C43.0075 13.0306 40.2775 13.6136 37.7588 14.7443C35.2401 15.875 32.9902 17.5276 31.1579 19.5928C34.8407 19.3693 38.529 19.9301 41.9789 21.2381C45.4289 22.5462 48.5618 24.5718 51.1705 27.1808C53.7793 29.7899 55.8045 32.9231 57.1121 36.3731C58.4198 39.8232 58.9802 43.5116 58.7562 47.1943C61.7187 44.5604 63.8105 41.088 64.7542 37.2378C65.6979 33.3876 65.4488 29.3416 64.04 25.6362C62.6312 21.9308 60.1293 18.7412 56.8661 16.4905C53.6029 14.2398 49.7325 13.0343 45.7684 13.0338V13.0338Z" fill="#3D40C6"/>
</svg>
