<svg width="79" height="79" viewBox="0 0 79 79" fill="none" xmlns="http://www.w3.org/2000/svg">
<path d="M7.26294 42.3586H25.1089C25.6665 52.6773 28.9556 62.6626 34.6396 71.2927C27.5199 70.1744 20.9715 66.7282 16.0182 61.4932C11.0649 56.2581 7.98602 49.5292 7.26294 42.3586ZM7.26294 35.8419C7.98602 28.6712 11.0649 21.9423 16.0182 16.7072C20.9715 11.4722 27.5199 8.02605 34.6396 6.90771C28.9556 15.5378 25.6665 25.5231 25.1089 35.8419H7.26294ZM72.1041 35.8419H54.2581C53.7005 25.5231 50.4115 15.5378 44.7274 6.90771C51.8471 8.02605 58.3956 11.4722 63.3488 16.7072C68.3021 21.9423 71.381 28.6712 72.1041 35.8419ZM72.1041 42.3586C71.381 49.5292 68.3021 56.2581 63.3488 61.4932C58.3956 66.7282 51.8471 70.1744 44.7274 71.2927C50.4115 62.6626 53.7005 52.6773 54.2581 42.3586H72.1073H72.1041ZM31.6354 42.3586H47.7316C47.1953 51.1544 44.4254 59.6683 39.6835 67.0959C34.9416 59.6683 32.1717 51.1544 31.6354 42.3586ZM31.6354 35.8419C32.1717 27.046 34.9416 18.5321 39.6835 11.1045C44.4254 18.5321 47.1953 27.046 47.7316 35.8419H31.6354Z" fill="#3D40C6"/>
</svg>
