<svg width="26" height="28" viewBox="0 0 26 28" fill="none" xmlns="http://www.w3.org/2000/svg">
<path d="M15.493 20.6972L9.89429 17.6438C9.16335 18.4252 8.21427 18.9687 7.17039 19.2037C6.1265 19.4386 5.03609 19.3541 4.04085 18.9612C3.04561 18.5683 2.19157 17.8851 1.58971 17.0004C0.987857 16.1157 0.666016 15.0705 0.666016 14.0005C0.666016 12.9305 0.987857 11.8853 1.58971 11.0006C2.19157 10.1159 3.04561 9.4327 4.04085 9.03978C5.03609 8.64686 6.1265 8.56238 7.17039 8.79732C8.21427 9.03226 9.16335 9.57575 9.89429 10.3572L15.4943 7.30383C15.1764 6.04527 15.3284 4.71395 15.9218 3.55944C16.5152 2.40492 17.5094 1.50648 18.7178 1.0325C19.9263 0.55853 21.2662 0.541574 22.4863 0.984813C23.7064 1.42805 24.7229 2.30106 25.3454 3.44018C25.9678 4.57931 26.1535 5.90635 25.8675 7.17256C25.5815 8.43877 24.8436 9.55721 23.7919 10.3182C22.7403 11.0793 21.4472 11.4306 20.1551 11.3065C18.8629 11.1823 17.6604 10.5912 16.773 9.64383L11.173 12.6972C11.3879 13.5523 11.3879 14.4474 11.173 15.3025L16.7716 18.3558C17.6591 17.4085 18.8616 16.8173 20.1538 16.6932C21.4459 16.569 22.739 16.9204 23.7906 17.6814C24.8422 18.4425 25.5802 19.5609 25.8662 20.8271C26.1521 22.0933 25.9665 23.4204 25.344 24.5595C24.7216 25.6986 23.705 26.5716 22.4849 27.0149C21.2648 27.4581 19.925 27.4411 18.7165 26.9672C17.508 26.4932 16.5139 25.5947 15.9205 24.4402C15.327 23.2857 15.175 21.9544 15.493 20.6958V20.6972ZM5.99962 16.6665C6.70687 16.6665 7.38515 16.3855 7.88524 15.8855C8.38534 15.3854 8.66629 14.7071 8.66629 13.9998C8.66629 13.2926 8.38534 12.6143 7.88524 12.1142C7.38515 11.6141 6.70687 11.3332 5.99962 11.3332C5.29238 11.3332 4.6141 11.6141 4.11401 12.1142C3.61391 12.6143 3.33296 13.2926 3.33296 13.9998C3.33296 14.7071 3.61391 15.3854 4.11401 15.8855C4.6141 16.3855 5.29238 16.6665 5.99962 16.6665ZM20.6663 8.6665C21.3735 8.6665 22.0518 8.38555 22.5519 7.88545C23.052 7.38535 23.333 6.70708 23.333 5.99983C23.333 5.29259 23.052 4.61431 22.5519 4.11422C22.0518 3.61412 21.3735 3.33317 20.6663 3.33317C19.959 3.33317 19.2808 3.61412 18.7807 4.11422C18.2806 4.61431 17.9996 5.29259 17.9996 5.99983C17.9996 6.70708 18.2806 7.38535 18.7807 7.88545C19.2808 8.38555 19.959 8.6665 20.6663 8.6665ZM20.6663 24.6665C21.3735 24.6665 22.0518 24.3855 22.5519 23.8855C23.052 23.3854 23.333 22.7071 23.333 21.9998C23.333 21.2926 23.052 20.6143 22.5519 20.1142C22.0518 19.6141 21.3735 19.3332 20.6663 19.3332C19.959 19.3332 19.2808 19.6141 18.7807 20.1142C18.2806 20.6143 17.9996 21.2926 17.9996 21.9998C17.9996 22.7071 18.2806 23.3854 18.7807 23.8855C19.2808 24.3855 19.959 24.6665 20.6663 24.6665Z" fill="#262338"/>
</svg>
