<svg width="24" height="28" viewBox="0 0 24 28" fill="none" xmlns="http://www.w3.org/2000/svg">
<path fill-rule="evenodd" clip-rule="evenodd" d="M23.7 6.88L17.14 0.28L16.44 0H1L0 1V12H2V2H14V9L15 10H22V12H24V7.6L23.7 6.88ZM16 8V2L22 8H16ZM1 14L0 15V27L1 28H23L24 27V15L23 14H1ZM22 24V26H2V16H22V24ZM6 22C6 22 5.59804 21.9238 5.36 22C4.61611 22.238 6.00587 23.5608 5.36 24C4.92081 24.2987 4.53111 24 4 24C4 24 8.38 18.72 8.38 20C8.38387 20.272 8.32865 20.5417 8.21816 20.7903C8.10766 21.0389 7.74 21.44 7.74 21.44C7.74 21.44 6.62794 22.0247 6 22ZM5.88 19.1H5.36V20.96H5.88C6.6 20.96 6.96 20.64 6.96 20.02C6.96 19.4 6.6 19.1 5.88 19.1ZM14 23.16C14.2954 22.8691 14.5263 22.5193 14.6779 22.1335C14.8295 21.7476 14.8984 21.3342 14.88 20.92C14.88 18.92 13.82 18 11.68 18H9.56V24H11.68C12.1031 24.0205 12.526 23.9568 12.9242 23.8126C13.3225 23.6684 13.6881 23.4466 14 23.16ZM10.9 22.9V19.1H11.56C11.8151 19.0838 12.0708 19.1198 12.3115 19.2057C12.5522 19.2917 12.7729 19.4259 12.96 19.6C13.1295 19.778 13.2612 19.9885 13.3471 20.2188C13.4331 20.4491 13.4715 20.6945 13.46 20.94C13.49 21.4672 13.3102 21.9848 12.96 22.38C12.7769 22.5552 12.5603 22.6916 12.3231 22.781C12.086 22.8703 11.8332 22.9108 11.58 22.9H10.9ZM19.8 21.68H17.86V24H16.5V18H19.98V19.1H17.86V20.58H19.8V21.68Z" fill="#262338"/>
</svg>
