<svg width="33" height="32" viewBox="0 0 33 32" fill="none" xmlns="http://www.w3.org/2000/svg">
<g clip-path="url(#clip0_12492_59370)">
<path d="M32.0147 9.60015C32.0147 9.60015 31.7022 7.3939 30.7397 6.42515C29.521 5.15015 28.1585 5.1439 27.5335 5.0689C23.0585 4.7439 16.3397 4.7439 16.3397 4.7439H16.3272C16.3272 4.7439 9.6085 4.7439 5.1335 5.0689C4.5085 5.1439 3.146 5.15015 1.92725 6.42515C0.964746 7.3939 0.658496 9.60015 0.658496 9.60015C0.658496 9.60015 0.333496 12.1939 0.333496 14.7814V17.2064C0.333496 19.7939 0.652246 22.3876 0.652246 22.3876C0.652246 22.3876 0.964746 24.5939 1.921 25.5626C3.13975 26.8376 4.73975 26.7939 5.45225 26.9314C8.01475 27.1751 16.3335 27.2501 16.3335 27.2501C16.3335 27.2501 23.0585 27.2376 27.5335 26.9189C28.1585 26.8439 29.521 26.8376 30.7397 25.5626C31.7022 24.5939 32.0147 22.3876 32.0147 22.3876C32.0147 22.3876 32.3335 19.8001 32.3335 17.2064V14.7814C32.3335 12.1939 32.0147 9.60015 32.0147 9.60015ZM13.0272 20.1501V11.1564L21.671 15.6689L13.0272 20.1501Z" fill="#FCFCFC"/>
</g>
<defs>
<clipPath id="clip0_12492_59370">
<rect width="32" height="32" fill="white" transform="translate(0.333496)"/>
</clipPath>
</defs>
</svg>
